<svg xmlns="http://www.w3.org/2000/svg" viewBox="0 0 24 24">
  <!-- Material Design Radiator Icon -->
  <path d="M7.95,3L6.53,5.19L7.95,7.4H7.94L5.95,10.5L4.22,9.6L5.64,7.39L4.22,5.19L6.22,2.09L7.95,3M13.95,2.89L12.53,5.1L13.95,7.3L13.94,7.31L11.95,10.4L10.22,9.5L11.64,7.3L10.22,5.1L12.22,2L13.95,2.89M20,2.89L18.56,5.1L20,7.3V7.31L18,10.4L16.25,9.5L17.67,7.3L16.25,5.1L18.25,2L20,2.89M2,22V14A2,2 0 0,1 4,12H20A2,2 0 0,1 22,14V22H20V20H4V22H2M6,14A1,1 0 0,0 5,15V17A1,1 0 0,0 6,18A1,1 0 0,0 7,17V15A1,1 0 0,0 6,14M10,14A1,1 0 0,0 9,15V17A1,1 0 0,0 10,18A1,1 0 0,0 11,17V15A1,1 0 0,0 10,14M14,14A1,1 0 0,0 13,15V17A1,1 0 0,0 14,18A1,1 0 0,0 15,17V15A1,1 0 0,0 14,14M18,14A1,1 0 0,0 17,15V17A1,1 0 0,0 18,18A1,1 0 0,0 19,17V15A1,1 0 0,0 18,14Z" fill="#2196F3"/>
  
  <!-- Material Design Fire Icon (smaller, in corner) -->
  <path d="M17.66 11.2C17.43 10.9 17.15 10.64 16.89 10.38C16.22 9.78 15.46 9.35 14.82 8.72C13.33 7.26 13 4.85 13.95 3C13 3.23 12.17 3.75 11.46 4.32C8.87 6.4 7.85 10.07 9.07 13.22C9.11 13.32 9.15 13.42 9.15 13.55C9.15 13.77 9 13.97 8.8 14.05C8.57 14.15 8.33 14.09 8.14 13.93C8.08 13.88 8.04 13.83 8 13.76C6.87 12.33 6.69 10.28 7.45 8.64C5.78 10 4.87 12.3 5 14.47C5.06 14.97 5.12 15.47 5.29 15.97C5.43 16.57 5.7 17.17 6 17.7C7.08 19.43 8.95 20.67 10.96 20.92C13.1 21.19 15.39 20.8 17.03 19.32C18.86 17.66 19.5 15 18.56 12.72L18.43 12.46C18.22 12 17.66 11.2 17.66 11.2M14.5 17.5C14.22 17.74 13.76 18 13.4 18.1C12.28 18.5 11.16 17.94 10.5 17.28C11.69 17 12.4 16.12 12.61 15.23C12.78 14.43 12.46 13.77 12.33 13C12.21 12.26 12.23 11.63 12.5 10.94C12.69 11.32 12.89 11.7 13.13 12C13.9 13 15.11 13.44 15.37 14.8C15.41 14.94 15.43 15.08 15.43 15.23C15.46 16.05 15.1 16.95 14.5 17.5H14.5Z" 
        fill="#FF5722" 
        transform="translate(16, 2) scale(0.5)"/>
  
  <!-- Temperature indicator -->
  <rect x="8" y="18" width="8" height="2" rx="1" fill="#FF9800"/>
  
  <!-- Status dot (green) -->
  <circle cx="20" cy="4" r="1.5" fill="#4CAF50"/>
</svg>